<mxfile host="app.diagrams.net" agent="Mozilla/5.0 (Windows NT 10.0; Win64; x64) AppleWebKit/537.36 (KHTML, like Gecko) Chrome/130.0.0.0 Safari/537.36 Edg/130.0.0.0" version="24.8.4">
  <diagram id="C5RBs43oDa-KdzZeNtuy" name="Page-1">
    <mxGraphModel dx="2238" dy="1108" grid="1" gridSize="10" guides="1" tooltips="1" connect="1" arrows="1" fold="1" page="1" pageScale="1" pageWidth="827" pageHeight="1169" math="0" shadow="0">
      <root>
        <mxCell id="WIyWlLk6GJQsqaUBKTNV-0" />
        <mxCell id="WIyWlLk6GJQsqaUBKTNV-1" parent="WIyWlLk6GJQsqaUBKTNV-0" />
        <mxCell id="zkfFHV4jXpPFQw0GAbJ--17" value="Mago" style="swimlane;fontStyle=0;align=center;verticalAlign=top;childLayout=stackLayout;horizontal=1;startSize=26;horizontalStack=0;resizeParent=1;resizeLast=0;collapsible=1;marginBottom=0;rounded=0;shadow=0;strokeWidth=1;" parent="WIyWlLk6GJQsqaUBKTNV-1" vertex="1">
          <mxGeometry x="520" y="477" width="160" height="83" as="geometry">
            <mxRectangle x="550" y="140" width="160" height="26" as="alternateBounds" />
          </mxGeometry>
        </mxCell>
        <mxCell id="zkfFHV4jXpPFQw0GAbJ--18" value="- mana : int" style="text;align=left;verticalAlign=top;spacingLeft=4;spacingRight=4;overflow=hidden;rotatable=0;points=[[0,0.5],[1,0.5]];portConstraint=eastwest;" parent="zkfFHV4jXpPFQw0GAbJ--17" vertex="1">
          <mxGeometry y="26" width="160" height="26" as="geometry" />
        </mxCell>
        <mxCell id="zkfFHV4jXpPFQw0GAbJ--23" value="" style="line;html=1;strokeWidth=1;align=left;verticalAlign=middle;spacingTop=-1;spacingLeft=3;spacingRight=3;rotatable=0;labelPosition=right;points=[];portConstraint=eastwest;" parent="zkfFHV4jXpPFQw0GAbJ--17" vertex="1">
          <mxGeometry y="52" width="160" height="8" as="geometry" />
        </mxCell>
        <mxCell id="NRB0wFyJWUH2is0wWjTI-96" style="edgeStyle=none;curved=1;rounded=0;orthogonalLoop=1;jettySize=auto;html=1;entryX=0.5;entryY=0;entryDx=0;entryDy=0;fontSize=12;startSize=8;endSize=8;" edge="1" parent="WIyWlLk6GJQsqaUBKTNV-1" source="NRB0wFyJWUH2is0wWjTI-0" target="NRB0wFyJWUH2is0wWjTI-13">
          <mxGeometry relative="1" as="geometry" />
        </mxCell>
        <mxCell id="NRB0wFyJWUH2is0wWjTI-0" value="GremioAventurero&#xa;" style="swimlane;fontStyle=2;align=center;verticalAlign=top;childLayout=stackLayout;horizontal=1;startSize=26;horizontalStack=0;resizeParent=1;resizeLast=0;collapsible=1;marginBottom=0;rounded=0;shadow=0;strokeWidth=1;" vertex="1" parent="WIyWlLk6GJQsqaUBKTNV-1">
          <mxGeometry x="520" y="30" width="164" height="60" as="geometry">
            <mxRectangle x="230" y="140" width="160" height="26" as="alternateBounds" />
          </mxGeometry>
        </mxCell>
        <mxCell id="NRB0wFyJWUH2is0wWjTI-4" value="" style="line;html=1;strokeWidth=1;align=left;verticalAlign=middle;spacingTop=-1;spacingLeft=3;spacingRight=3;rotatable=0;labelPosition=right;points=[];portConstraint=eastwest;" vertex="1" parent="NRB0wFyJWUH2is0wWjTI-0">
          <mxGeometry y="26" width="164" height="8" as="geometry" />
        </mxCell>
        <mxCell id="NRB0wFyJWUH2is0wWjTI-13" value="&lt;&lt;Abstract&gt;&gt;&#xa;Aventurero&#xa;&#xa;" style="swimlane;fontStyle=2;align=center;verticalAlign=top;childLayout=stackLayout;horizontal=1;startSize=40;horizontalStack=0;resizeParent=1;resizeLast=0;collapsible=1;marginBottom=0;rounded=0;shadow=0;strokeWidth=1;" vertex="1" parent="WIyWlLk6GJQsqaUBKTNV-1">
          <mxGeometry x="520" y="160" width="164" height="230" as="geometry">
            <mxRectangle x="230" y="140" width="160" height="26" as="alternateBounds" />
          </mxGeometry>
        </mxCell>
        <mxCell id="NRB0wFyJWUH2is0wWjTI-15" value="- nombre : str&#xa;&#xa;" style="text;align=left;verticalAlign=top;spacingLeft=4;spacingRight=4;overflow=hidden;rotatable=0;points=[[0,0.5],[1,0.5]];portConstraint=eastwest;" vertex="1" parent="NRB0wFyJWUH2is0wWjTI-13">
          <mxGeometry y="40" width="164" height="26" as="geometry" />
        </mxCell>
        <mxCell id="NRB0wFyJWUH2is0wWjTI-16" value="- id : int" style="text;align=left;verticalAlign=top;spacingLeft=4;spacingRight=4;overflow=hidden;rotatable=0;points=[[0,0.5],[1,0.5]];portConstraint=eastwest;" vertex="1" parent="NRB0wFyJWUH2is0wWjTI-13">
          <mxGeometry y="66" width="164" height="26" as="geometry" />
        </mxCell>
        <mxCell id="NRB0wFyJWUH2is0wWjTI-17" value="- puntosDeHabilidad : int" style="text;align=left;verticalAlign=top;spacingLeft=4;spacingRight=4;overflow=hidden;rotatable=0;points=[[0,0.5],[1,0.5]];portConstraint=eastwest;" vertex="1" parent="NRB0wFyJWUH2is0wWjTI-13">
          <mxGeometry y="92" width="164" height="26" as="geometry" />
        </mxCell>
        <mxCell id="NRB0wFyJWUH2is0wWjTI-18" value="- experiencia : int" style="text;align=left;verticalAlign=top;spacingLeft=4;spacingRight=4;overflow=hidden;rotatable=0;points=[[0,0.5],[1,0.5]];portConstraint=eastwest;" vertex="1" parent="NRB0wFyJWUH2is0wWjTI-13">
          <mxGeometry y="118" width="164" height="32" as="geometry" />
        </mxCell>
        <mxCell id="NRB0wFyJWUH2is0wWjTI-19" value="- dinero : double" style="text;align=left;verticalAlign=top;spacingLeft=4;spacingRight=4;overflow=hidden;rotatable=0;points=[[0,0.5],[1,0.5]];portConstraint=eastwest;" vertex="1" parent="NRB0wFyJWUH2is0wWjTI-13">
          <mxGeometry y="150" width="164" height="32" as="geometry" />
        </mxCell>
        <mxCell id="NRB0wFyJWUH2is0wWjTI-14" value="" style="line;html=1;strokeWidth=1;align=left;verticalAlign=middle;spacingTop=-1;spacingLeft=3;spacingRight=3;rotatable=0;labelPosition=right;points=[];portConstraint=eastwest;" vertex="1" parent="NRB0wFyJWUH2is0wWjTI-13">
          <mxGeometry y="182" width="164" height="14" as="geometry" />
        </mxCell>
        <mxCell id="NRB0wFyJWUH2is0wWjTI-20" value="Ranger&#xa;" style="swimlane;fontStyle=0;align=center;verticalAlign=top;childLayout=stackLayout;horizontal=1;startSize=26;horizontalStack=0;resizeParent=1;resizeLast=0;collapsible=1;marginBottom=0;rounded=0;shadow=0;strokeWidth=1;" vertex="1" parent="WIyWlLk6GJQsqaUBKTNV-1">
          <mxGeometry x="700" y="477" width="160" height="103" as="geometry">
            <mxRectangle x="550" y="140" width="160" height="26" as="alternateBounds" />
          </mxGeometry>
        </mxCell>
        <mxCell id="NRB0wFyJWUH2is0wWjTI-21" value="- nombre : str" style="text;align=left;verticalAlign=top;spacingLeft=4;spacingRight=4;overflow=hidden;rotatable=0;points=[[0,0.5],[1,0.5]];portConstraint=eastwest;" vertex="1" parent="NRB0wFyJWUH2is0wWjTI-20">
          <mxGeometry y="26" width="160" height="26" as="geometry" />
        </mxCell>
        <mxCell id="NRB0wFyJWUH2is0wWjTI-22" value="- puntosDeHabilidad : int" style="text;align=left;verticalAlign=top;spacingLeft=4;spacingRight=4;overflow=hidden;rotatable=0;points=[[0,0.5],[1,0.5]];portConstraint=eastwest;rounded=0;shadow=0;html=0;" vertex="1" parent="NRB0wFyJWUH2is0wWjTI-20">
          <mxGeometry y="52" width="160" height="26" as="geometry" />
        </mxCell>
        <mxCell id="NRB0wFyJWUH2is0wWjTI-26" value="" style="line;html=1;strokeWidth=1;align=left;verticalAlign=middle;spacingTop=-1;spacingLeft=3;spacingRight=3;rotatable=0;labelPosition=right;points=[];portConstraint=eastwest;" vertex="1" parent="NRB0wFyJWUH2is0wWjTI-20">
          <mxGeometry y="78" width="160" height="8" as="geometry" />
        </mxCell>
        <mxCell id="NRB0wFyJWUH2is0wWjTI-29" value="Guerrero" style="swimlane;fontStyle=0;align=center;verticalAlign=top;childLayout=stackLayout;horizontal=1;startSize=23;horizontalStack=0;resizeParent=1;resizeLast=0;collapsible=1;marginBottom=0;rounded=0;shadow=0;strokeWidth=1;" vertex="1" parent="WIyWlLk6GJQsqaUBKTNV-1">
          <mxGeometry x="340" y="477" width="160" height="83" as="geometry">
            <mxRectangle x="550" y="140" width="160" height="26" as="alternateBounds" />
          </mxGeometry>
        </mxCell>
        <mxCell id="NRB0wFyJWUH2is0wWjTI-30" value="- fuerza : int" style="text;align=left;verticalAlign=top;spacingLeft=4;spacingRight=4;overflow=hidden;rotatable=0;points=[[0,0.5],[1,0.5]];portConstraint=eastwest;" vertex="1" parent="NRB0wFyJWUH2is0wWjTI-29">
          <mxGeometry y="23" width="160" height="26" as="geometry" />
        </mxCell>
        <mxCell id="NRB0wFyJWUH2is0wWjTI-35" value="" style="line;html=1;strokeWidth=1;align=left;verticalAlign=middle;spacingTop=-1;spacingLeft=3;spacingRight=3;rotatable=0;labelPosition=right;points=[];portConstraint=eastwest;" vertex="1" parent="NRB0wFyJWUH2is0wWjTI-29">
          <mxGeometry y="49" width="160" height="8" as="geometry" />
        </mxCell>
        <mxCell id="NRB0wFyJWUH2is0wWjTI-65" style="edgeStyle=none;curved=1;rounded=0;orthogonalLoop=1;jettySize=auto;html=1;exitX=0.5;exitY=0;exitDx=0;exitDy=0;fontSize=12;startSize=8;endSize=8;" edge="1" parent="WIyWlLk6GJQsqaUBKTNV-1" source="NRB0wFyJWUH2is0wWjTI-20" target="NRB0wFyJWUH2is0wWjTI-20">
          <mxGeometry relative="1" as="geometry" />
        </mxCell>
        <mxCell id="NRB0wFyJWUH2is0wWjTI-66" value="Mascota&#xa;" style="swimlane;fontStyle=0;align=center;verticalAlign=top;childLayout=stackLayout;horizontal=1;startSize=26;horizontalStack=0;resizeParent=1;resizeLast=0;collapsible=1;marginBottom=0;rounded=0;shadow=0;strokeWidth=1;" vertex="1" parent="WIyWlLk6GJQsqaUBKTNV-1">
          <mxGeometry x="988" y="477" width="160" height="216" as="geometry">
            <mxRectangle x="550" y="140" width="160" height="26" as="alternateBounds" />
          </mxGeometry>
        </mxCell>
        <mxCell id="NRB0wFyJWUH2is0wWjTI-67" value="Street" style="text;align=left;verticalAlign=top;spacingLeft=4;spacingRight=4;overflow=hidden;rotatable=0;points=[[0,0.5],[1,0.5]];portConstraint=eastwest;" vertex="1" parent="NRB0wFyJWUH2is0wWjTI-66">
          <mxGeometry y="26" width="160" height="26" as="geometry" />
        </mxCell>
        <mxCell id="NRB0wFyJWUH2is0wWjTI-68" value="City" style="text;align=left;verticalAlign=top;spacingLeft=4;spacingRight=4;overflow=hidden;rotatable=0;points=[[0,0.5],[1,0.5]];portConstraint=eastwest;rounded=0;shadow=0;html=0;" vertex="1" parent="NRB0wFyJWUH2is0wWjTI-66">
          <mxGeometry y="52" width="160" height="26" as="geometry" />
        </mxCell>
        <mxCell id="NRB0wFyJWUH2is0wWjTI-69" value="State" style="text;align=left;verticalAlign=top;spacingLeft=4;spacingRight=4;overflow=hidden;rotatable=0;points=[[0,0.5],[1,0.5]];portConstraint=eastwest;rounded=0;shadow=0;html=0;" vertex="1" parent="NRB0wFyJWUH2is0wWjTI-66">
          <mxGeometry y="78" width="160" height="26" as="geometry" />
        </mxCell>
        <mxCell id="NRB0wFyJWUH2is0wWjTI-70" value="Postal Code" style="text;align=left;verticalAlign=top;spacingLeft=4;spacingRight=4;overflow=hidden;rotatable=0;points=[[0,0.5],[1,0.5]];portConstraint=eastwest;rounded=0;shadow=0;html=0;" vertex="1" parent="NRB0wFyJWUH2is0wWjTI-66">
          <mxGeometry y="104" width="160" height="26" as="geometry" />
        </mxCell>
        <mxCell id="NRB0wFyJWUH2is0wWjTI-71" value="Country" style="text;align=left;verticalAlign=top;spacingLeft=4;spacingRight=4;overflow=hidden;rotatable=0;points=[[0,0.5],[1,0.5]];portConstraint=eastwest;rounded=0;shadow=0;html=0;" vertex="1" parent="NRB0wFyJWUH2is0wWjTI-66">
          <mxGeometry y="130" width="160" height="26" as="geometry" />
        </mxCell>
        <mxCell id="NRB0wFyJWUH2is0wWjTI-72" value="" style="line;html=1;strokeWidth=1;align=left;verticalAlign=middle;spacingTop=-1;spacingLeft=3;spacingRight=3;rotatable=0;labelPosition=right;points=[];portConstraint=eastwest;" vertex="1" parent="NRB0wFyJWUH2is0wWjTI-66">
          <mxGeometry y="156" width="160" height="8" as="geometry" />
        </mxCell>
        <mxCell id="NRB0wFyJWUH2is0wWjTI-73" value="Validate" style="text;align=left;verticalAlign=top;spacingLeft=4;spacingRight=4;overflow=hidden;rotatable=0;points=[[0,0.5],[1,0.5]];portConstraint=eastwest;" vertex="1" parent="NRB0wFyJWUH2is0wWjTI-66">
          <mxGeometry y="164" width="160" height="26" as="geometry" />
        </mxCell>
        <mxCell id="NRB0wFyJWUH2is0wWjTI-74" value="Output As Label" style="text;align=left;verticalAlign=top;spacingLeft=4;spacingRight=4;overflow=hidden;rotatable=0;points=[[0,0.5],[1,0.5]];portConstraint=eastwest;" vertex="1" parent="NRB0wFyJWUH2is0wWjTI-66">
          <mxGeometry y="190" width="160" height="26" as="geometry" />
        </mxCell>
        <mxCell id="NRB0wFyJWUH2is0wWjTI-88" value="" style="endArrow=none;html=1;rounded=0;fontSize=12;startSize=8;endSize=8;curved=1;" edge="1" parent="WIyWlLk6GJQsqaUBKTNV-1" source="NRB0wFyJWUH2is0wWjTI-127">
          <mxGeometry width="50" height="50" relative="1" as="geometry">
            <mxPoint x="414" y="430" as="sourcePoint" />
            <mxPoint x="570" y="430" as="targetPoint" />
          </mxGeometry>
        </mxCell>
        <mxCell id="NRB0wFyJWUH2is0wWjTI-95" value="1" style="endArrow=open;html=1;endSize=12;startArrow=diamondThin;startSize=14;startFill=0;edgeStyle=orthogonalEdgeStyle;align=left;verticalAlign=bottom;rounded=0;fontSize=12;curved=1;entryX=0.013;entryY=0.074;entryDx=0;entryDy=0;entryPerimeter=0;" edge="1" parent="WIyWlLk6GJQsqaUBKTNV-1">
          <mxGeometry x="-1" y="3" relative="1" as="geometry">
            <mxPoint x="859" y="493" as="sourcePoint" />
            <mxPoint x="988.9999999999999" y="492.98400000000004" as="targetPoint" />
            <Array as="points">
              <mxPoint x="906.92" y="492" />
              <mxPoint x="906.92" y="493" />
            </Array>
          </mxGeometry>
        </mxCell>
        <mxCell id="NRB0wFyJWUH2is0wWjTI-97" value="&lt;&lt;Abstract&gt;&gt;&#xa;Mision&#xa;&#xa;" style="swimlane;fontStyle=2;align=center;verticalAlign=top;childLayout=stackLayout;horizontal=1;startSize=40;horizontalStack=0;resizeParent=1;resizeLast=0;collapsible=1;marginBottom=0;rounded=0;shadow=0;strokeWidth=1;" vertex="1" parent="WIyWlLk6GJQsqaUBKTNV-1">
          <mxGeometry x="80" y="160" width="164" height="230" as="geometry">
            <mxRectangle x="230" y="140" width="160" height="26" as="alternateBounds" />
          </mxGeometry>
        </mxCell>
        <mxCell id="NRB0wFyJWUH2is0wWjTI-98" value="- nombre : str&#xa;&#xa;" style="text;align=left;verticalAlign=top;spacingLeft=4;spacingRight=4;overflow=hidden;rotatable=0;points=[[0,0.5],[1,0.5]];portConstraint=eastwest;" vertex="1" parent="NRB0wFyJWUH2is0wWjTI-97">
          <mxGeometry y="40" width="164" height="26" as="geometry" />
        </mxCell>
        <mxCell id="NRB0wFyJWUH2is0wWjTI-99" value="- rango : int" style="text;align=left;verticalAlign=top;spacingLeft=4;spacingRight=4;overflow=hidden;rotatable=0;points=[[0,0.5],[1,0.5]];portConstraint=eastwest;" vertex="1" parent="NRB0wFyJWUH2is0wWjTI-97">
          <mxGeometry y="66" width="164" height="26" as="geometry" />
        </mxCell>
        <mxCell id="NRB0wFyJWUH2is0wWjTI-100" value="- recompensa : double" style="text;align=left;verticalAlign=top;spacingLeft=4;spacingRight=4;overflow=hidden;rotatable=0;points=[[0,0.5],[1,0.5]];portConstraint=eastwest;" vertex="1" parent="NRB0wFyJWUH2is0wWjTI-97">
          <mxGeometry y="92" width="164" height="26" as="geometry" />
        </mxCell>
        <mxCell id="NRB0wFyJWUH2is0wWjTI-101" value="- completado : bool" style="text;align=left;verticalAlign=top;spacingLeft=4;spacingRight=4;overflow=hidden;rotatable=0;points=[[0,0.5],[1,0.5]];portConstraint=eastwest;" vertex="1" parent="NRB0wFyJWUH2is0wWjTI-97">
          <mxGeometry y="118" width="164" height="32" as="geometry" />
        </mxCell>
        <mxCell id="NRB0wFyJWUH2is0wWjTI-103" value="" style="line;html=1;strokeWidth=1;align=left;verticalAlign=middle;spacingTop=-1;spacingLeft=3;spacingRight=3;rotatable=0;labelPosition=right;points=[];portConstraint=eastwest;" vertex="1" parent="NRB0wFyJWUH2is0wWjTI-97">
          <mxGeometry y="150" width="164" height="14" as="geometry" />
        </mxCell>
        <mxCell id="NRB0wFyJWUH2is0wWjTI-127" value="Extends" style="text;html=1;align=center;verticalAlign=middle;whiteSpace=wrap;rounded=0;fontSize=16;" vertex="1" parent="WIyWlLk6GJQsqaUBKTNV-1">
          <mxGeometry x="380" y="415" width="60" height="30" as="geometry" />
        </mxCell>
        <mxCell id="NRB0wFyJWUH2is0wWjTI-130" value="" style="endArrow=none;html=1;rounded=0;fontSize=12;startSize=8;endSize=8;curved=1;exitX=0.45;exitY=0.002;exitDx=0;exitDy=0;exitPerimeter=0;entryX=0.554;entryY=0.996;entryDx=0;entryDy=0;entryPerimeter=0;" edge="1" parent="WIyWlLk6GJQsqaUBKTNV-1" target="NRB0wFyJWUH2is0wWjTI-127">
          <mxGeometry width="50" height="50" relative="1" as="geometry">
            <mxPoint x="413" y="477.16600000000005" as="sourcePoint" />
            <mxPoint x="413" y="450" as="targetPoint" />
          </mxGeometry>
        </mxCell>
        <mxCell id="NRB0wFyJWUH2is0wWjTI-136" value="" style="endArrow=none;html=1;rounded=0;fontSize=12;startSize=8;endSize=8;curved=1;" edge="1" parent="WIyWlLk6GJQsqaUBKTNV-1" target="NRB0wFyJWUH2is0wWjTI-137">
          <mxGeometry width="50" height="50" relative="1" as="geometry">
            <mxPoint x="602" y="477" as="sourcePoint" />
            <mxPoint x="602" y="450" as="targetPoint" />
          </mxGeometry>
        </mxCell>
        <mxCell id="NRB0wFyJWUH2is0wWjTI-137" value="Extends" style="text;html=1;align=center;verticalAlign=middle;whiteSpace=wrap;rounded=0;fontSize=16;" vertex="1" parent="WIyWlLk6GJQsqaUBKTNV-1">
          <mxGeometry x="572" y="415" width="60" height="30" as="geometry" />
        </mxCell>
        <mxCell id="NRB0wFyJWUH2is0wWjTI-138" value="" style="endArrow=none;html=1;rounded=0;fontSize=12;startSize=8;endSize=8;curved=1;exitX=0;exitY=0.5;exitDx=0;exitDy=0;" edge="1" parent="WIyWlLk6GJQsqaUBKTNV-1" source="NRB0wFyJWUH2is0wWjTI-145">
          <mxGeometry width="50" height="50" relative="1" as="geometry">
            <mxPoint x="730" y="430" as="sourcePoint" />
            <mxPoint x="640" y="430" as="targetPoint" />
          </mxGeometry>
        </mxCell>
        <mxCell id="NRB0wFyJWUH2is0wWjTI-141" value="" style="endArrow=block;endSize=16;endFill=0;html=1;rounded=0;fontSize=12;curved=1;" edge="1" parent="WIyWlLk6GJQsqaUBKTNV-1">
          <mxGeometry width="160" relative="1" as="geometry">
            <mxPoint x="601" y="420" as="sourcePoint" />
            <mxPoint x="601" y="390" as="targetPoint" />
          </mxGeometry>
        </mxCell>
        <mxCell id="NRB0wFyJWUH2is0wWjTI-144" value="" style="endArrow=none;html=1;rounded=0;fontSize=12;startSize=8;endSize=8;curved=1;entryX=0.615;entryY=0.939;entryDx=0;entryDy=0;entryPerimeter=0;exitX=0.48;exitY=-0.008;exitDx=0;exitDy=0;exitPerimeter=0;" edge="1" parent="WIyWlLk6GJQsqaUBKTNV-1" source="NRB0wFyJWUH2is0wWjTI-20" target="NRB0wFyJWUH2is0wWjTI-145">
          <mxGeometry width="50" height="50" relative="1" as="geometry">
            <mxPoint x="776" y="477" as="sourcePoint" />
            <mxPoint x="778" y="451" as="targetPoint" />
          </mxGeometry>
        </mxCell>
        <mxCell id="NRB0wFyJWUH2is0wWjTI-145" value="Extends" style="text;html=1;align=center;verticalAlign=middle;whiteSpace=wrap;rounded=0;fontSize=16;" vertex="1" parent="WIyWlLk6GJQsqaUBKTNV-1">
          <mxGeometry x="740" y="415" width="60" height="30" as="geometry" />
        </mxCell>
        <mxCell id="NRB0wFyJWUH2is0wWjTI-153" value="Individual" style="swimlane;fontStyle=0;align=center;verticalAlign=top;childLayout=stackLayout;horizontal=1;startSize=23;horizontalStack=0;resizeParent=1;resizeLast=0;collapsible=1;marginBottom=0;rounded=0;shadow=0;strokeWidth=1;" vertex="1" parent="WIyWlLk6GJQsqaUBKTNV-1">
          <mxGeometry x="10" y="480" width="130" height="80" as="geometry">
            <mxRectangle x="550" y="140" width="160" height="26" as="alternateBounds" />
          </mxGeometry>
        </mxCell>
        <mxCell id="NRB0wFyJWUH2is0wWjTI-154" value="- fuerza : int" style="text;align=left;verticalAlign=top;spacingLeft=4;spacingRight=4;overflow=hidden;rotatable=0;points=[[0,0.5],[1,0.5]];portConstraint=eastwest;" vertex="1" parent="NRB0wFyJWUH2is0wWjTI-153">
          <mxGeometry y="23" width="130" height="26" as="geometry" />
        </mxCell>
        <mxCell id="NRB0wFyJWUH2is0wWjTI-155" value="" style="line;html=1;strokeWidth=1;align=left;verticalAlign=middle;spacingTop=-1;spacingLeft=3;spacingRight=3;rotatable=0;labelPosition=right;points=[];portConstraint=eastwest;" vertex="1" parent="NRB0wFyJWUH2is0wWjTI-153">
          <mxGeometry y="49" width="130" height="8" as="geometry" />
        </mxCell>
        <mxCell id="NRB0wFyJWUH2is0wWjTI-157" value="Grupal" style="swimlane;fontStyle=0;align=center;verticalAlign=top;childLayout=stackLayout;horizontal=1;startSize=23;horizontalStack=0;resizeParent=1;resizeLast=0;collapsible=1;marginBottom=0;rounded=0;shadow=0;strokeWidth=1;" vertex="1" parent="WIyWlLk6GJQsqaUBKTNV-1">
          <mxGeometry x="175" y="477" width="140" height="83" as="geometry">
            <mxRectangle x="550" y="140" width="160" height="26" as="alternateBounds" />
          </mxGeometry>
        </mxCell>
        <mxCell id="NRB0wFyJWUH2is0wWjTI-158" value="- cantidadMinima : int" style="text;align=left;verticalAlign=top;spacingLeft=4;spacingRight=4;overflow=hidden;rotatable=0;points=[[0,0.5],[1,0.5]];portConstraint=eastwest;" vertex="1" parent="NRB0wFyJWUH2is0wWjTI-157">
          <mxGeometry y="23" width="140" height="26" as="geometry" />
        </mxCell>
        <mxCell id="NRB0wFyJWUH2is0wWjTI-159" value="" style="line;html=1;strokeWidth=1;align=left;verticalAlign=middle;spacingTop=-1;spacingLeft=3;spacingRight=3;rotatable=0;labelPosition=right;points=[];portConstraint=eastwest;" vertex="1" parent="NRB0wFyJWUH2is0wWjTI-157">
          <mxGeometry y="49" width="140" height="8" as="geometry" />
        </mxCell>
      </root>
    </mxGraphModel>
  </diagram>
</mxfile>
